Coordinates
version=1
nRows=21
nColumns=38
inDegrees=no

Units are S.I. units (second, meters, Newtons, ...)
If the header above contains a line with 'inDegrees', this indicates whether rotational values are in degrees (yes) or radians (no).

endheader
time	pelvis_tilt	pelvis_list	pelvis_rotation	pelvis_tx	pelvis_ty	pelvis_tz	hip_flexion_r	hip_adduction_r	hip_rotation_r	knee_angle_r	ankle_angle_r	subtalar_angle_r	mtp_angle_r	hip_flexion_l	hip_adduction_l	hip_rotation_l	knee_angle_l	ankle_angle_l	subtalar_angle_l	mtp_angle_l	lumbar_extension	lumbar_bending	lumbar_rotation	arm_flex_r	arm_add_r	arm_rot_r	elbow_flex_r	pro_sup_r	wrist_flex_r	wrist_dev_r	arm_flex_l	arm_add_l	arm_rot_l	elbow_flex_l	pro_sup_l	wrist_flex_l	wrist_dev_l
1.39167	-0.0891346	0.106302	0.0781404	0.970209	0.986644	-0.330375	-0.230533	-0.0342465	-0.00778152	-1.2629	-0.248233	-0.0319619	-0.00910766	0.606842	0.25509	0.14856	-0.337739	0.267992	-0.0238156	-0.0487118	-0.0826875	-0.11087	0.0840716	-0.454378	-0.315637	0.0717279	1.83932	1.8801	0.018341	-0.00793094	-0.837181	-0.29084	-0.12967	1.88032	2.18394	0.0669041	-0.0375241
1.4	-0.0837605	0.11155	0.0841885	0.96891	0.981514	-0.331065	-0.194463	-0.0519723	-0.0310526	-1.38246	-0.233394	-0.0319619	-0.00910766	0.595077	0.266999	0.13633	-0.360685	0.240598	-0.0238156	-0.0487118	-0.0966036	-0.116662	0.0654816	-0.463944	-0.312228	0.0678852	1.80079	1.8826	0.018341	-0.00793094	-0.819023	-0.287701	-0.133897	1.87852	2.17582	0.0669041	-0.0375241
1.40833	-0.0802919	0.119268	0.0917146	0.967283	0.975653	-0.331929	-0.1553	-0.0736128	-0.0518405	-1.49907	-0.217921	-0.0319619	-0.00910766	0.588174	0.282964	0.124575	-0.394523	0.20898	-0.0238156	-0.0487118	-0.109524	-0.124995	0.0431968	-0.472622	-0.308406	0.0644594	1.75899	1.88586	0.018341	-0.00793094	-0.800415	-0.285822	-0.137597	1.87807	2.16662	0.0669041	-0.0375241
1.41667	-0.0783702	0.129025	0.100285	0.965317	0.96923	-0.332911	-0.113028	-0.0983139	-0.0686437	-1.61176	-0.202356	-0.0319619	-0.00910766	0.585811	0.302319	0.113858	-0.43859	0.176948	-0.0238156	-0.0487118	-0.121778	-0.135346	0.0172769	-0.479648	-0.304334	0.0617401	1.71351	1.88985	0.018341	-0.00793094	-0.781134	-0.285017	-0.140735	1.87876	2.15665	0.0669041	-0.0375241
1.425	-0.077614	0.140323	0.109484	0.963017	0.962528	-0.333954	-0.0674439	-0.125021	-0.0802585	-1.7197	-0.187291	-0.0319619	-0.00910766	0.58718	0.324272	0.10462	-0.49164	0.149116	-0.0238156	-0.0487118	-0.133716	-0.147094	-0.0119501	-0.484623	-0.300124	0.0596679	1.66419	1.89462	0.018341	-0.00793094	-0.760757	-0.285135	-0.143125	1.88028	2.14636	0.0669041	-0.0375241
1.43333	-0.0777286	0.152593	0.118941	0.960408	0.955898	-0.334992	-0.0181427	-0.152495	-0.0858183	-1.82204	-0.173188	-0.0319619	-0.00910766	0.590981	0.347911	0.0972676	-0.551548	0.12994	-0.0238156	-0.0487118	-0.145463	-0.159593	-0.0440606	-0.487367	-0.295908	0.0581268	1.61106	1.90017	0.018341	-0.00793094	-0.738882	-0.285947	-0.144643	1.88229	2.13632	0.0669041	-0.0375241
1.44167	-0.0785408	0.165222	0.128274	0.957527	0.949639	-0.335973	0.0353576	-0.179344	-0.0847837	-1.9179	-0.160205	-0.0319619	-0.00910766	0.595508	0.37219	0.0921997	-0.615344	0.122785	-0.0238156	-0.0487118	-0.156926	-0.172124	-0.0783183	-0.488132	-0.2918	0.0567477	1.55456	1.90659	0.018341	-0.00793094	-0.715093	-0.287243	-0.145112	1.88449	2.12716	0.0669041	-0.0375241
1.45	-0.080018	0.177544	0.137031	0.954424	0.943911	-0.33686	0.0934936	-0.204081	-0.0769389	-2.0063	-0.148142	-0.0319619	-0.00910766	0.598837	0.395958	0.0897542	-0.679414	0.129216	-0.0238156	-0.0487118	-0.167755	-0.183949	-0.113741	-0.487471	-0.287964	0.0551014	1.49561	1.91408	0.018341	-0.00793094	-0.689124	-0.288761	-0.144427	1.8867	2.11959	0.0669041	-0.0375241
1.45833	-0.0821292	0.188828	0.144636	0.95116	0.938774	-0.337633	0.156417	-0.225175	-0.062395	-2.08619	-0.136493	-0.0319619	-0.00910766	0.599061	0.417985	0.0901423	-0.740039	0.148879	-0.0238156	-0.0487118	-0.177527	-0.194251	-0.148925	-0.486396	-0.284565	0.052486	1.43576	1.9229	0.018341	-0.00793094	-0.660777	-0.290283	-0.142399	1.88901	2.11419	0.0669041	-0.0375241
1.46667	-0.0847762	0.198298	0.150413	0.947827	0.934286	-0.338285	0.223846	-0.241133	-0.0416478	-2.15649	-0.124621	-0.0319619	-0.00910766	0.594505	0.437026	0.0934028	-0.793873	0.179799	-0.0238156	-0.0487118	-0.185813	-0.202184	-0.182254	-0.486153	-0.281814	0.0481613	1.37709	1.9334	0.018341	-0.00793094	-0.630061	-0.291583	-0.138868	1.89173	2.11136	0.0669041	-0.0375241
1.475	-0.0877021	0.205166	0.153643	0.944533	0.930556	-0.338819	0.294915	-0.250625	-0.015631	-2.21615	-0.111942	-0.0319619	-0.00910766	0.583848	0.451905	0.0993984	-0.838379	0.218993	-0.0238156	-0.0487118	-0.192359	-0.206881	-0.211961	-0.488191	-0.27991	0.0413057	1.32207	1.94577	0.018341	-0.00793094	-0.597125	-0.292507	-0.133605	1.89544	2.11121	0.0669041	-0.0375241
1.48333	-0.0905833	0.208744	0.153705	0.941399	0.927711	-0.339236	0.36828	-0.252673	0.0142567	-2.2642	-0.0980879	-0.0319619	-0.00910766	0.566214	0.461623	0.107824	-0.871906	0.263036	-0.0238156	-0.0487118	-0.197021	-0.20762	-0.236578	-0.493762	-0.27908	0.0314608	1.27312	1.95984	0.018341	-0.00793094	-0.562442	-0.2929	-0.126546	1.90082	2.11357	0.0669041	-0.0375241
1.49167	-0.0931179	0.208537	0.150196	0.938557	0.925849	-0.339545	0.442274	-0.246825	0.0462163	-2.29983	-0.0829744	-0.0319619	-0.00910766	0.541172	0.465456	0.118224	-0.893595	0.308486	-0.0238156	-0.0487118	-0.199712	-0.203959	-0.25523	-0.503674	-0.279563	0.018734	1.2322	1.97494	0.018341	-0.00793094	-0.526845	-0.292604	-0.117874	1.90854	2.118	0.0669041	-0.0375241
1.5	-0.0951328	0.204324	0.143025	0.936139	0.925014	-0.339762	0.515155	-0.233224	0.0782505	-2.32254	-0.0667659	-0.0319619	-0.00910766	0.508722	0.463055	0.130059	-0.903168	0.352098	-0.0238156	-0.0487118	-0.200331	-0.195813	-0.267751	-0.518212	-0.281569	0.00378019	1.20057	1.99004	0.018341	-0.00793094	-0.491458	-0.291487	-0.107989	1.91912	2.12395	0.0669041	-0.0375241
1.50833	-0.0966293	0.196185	0.132437	0.934272	0.925226	-0.3399	0.585296	-0.212587	0.108404	-2.3321	-0.049777	-0.0319619	-0.00910766	0.469217	0.454482	0.142756	-0.900715	0.390863	-0.0238156	-0.0487118	-0.198756	-0.183448	-0.274656	-0.537182	-0.285231	-0.012382	1.17868	2.00389	0.018341	-0.00793094	-0.45755	-0.289477	-0.0974141	1.93283	2.13085	0.0669041	-0.0375241
1.51667	-0.097737	0.184462	0.118974	0.933065	0.926492	-0.339959	0.651277	-0.186088	0.134981	-2.32866	-0.0323568	-0.0319619	-0.00910766	0.423247	0.440178	0.15574	-0.886564	0.422004	-0.0238156	-0.0487118	-0.194912	-0.167381	-0.276951	-0.560075	-0.290554	-0.0286843	1.16631	2.01534	0.018341	-0.00793094	-0.426329	-0.286592	-0.0866434	1.94963	2.13823	0.0669041	-0.0375241
1.525	-0.0986175	0.169672	0.10338	0.932587	0.928811	-0.339936	0.711893	-0.155185	0.156698	-2.31268	-0.0147966	-0.0319619	-0.00910766	0.37153	0.420864	0.168436	-0.86127	0.442974	-0.0238156	-0.0487118	-0.1889	-0.148205	-0.275797	-0.586344	-0.297364	-0.044417	1.16277	2.02351	0.018341	-0.00793094	-0.398689	-0.282968	-0.0759231	1.96921	2.14572	0.0669041	-0.0375241
1.53333	-0.0994283	0.152383	0.0864973	0.932868	0.932142	-0.339827	0.766214	-0.121418	0.172747	-2.2849	0.00267241	-0.0319619	-0.00910766	0.314876	0.397409	0.180242	-0.825584	0.451469	-0.0238156	-0.0487118	-0.180952	-0.126543	-0.272496	-0.615343	-0.30539	-0.0591187	1.16698	2.02795	0.018341	-0.00793094	-0.375282	-0.278805	-0.0654201	1.99108	2.15312	0.0669041	-0.0375241
1.54167	-0.100248	0.133178	0.0691656	0.933892	0.936403	-0.339639	0.813625	-0.0862425	0.182796	-2.24625	0.0198579	-0.0319619	-0.00910766	0.254209	0.37068	0.190494	-0.78052	0.445546	-0.0238156	-0.0487118	-0.171413	-0.102946	-0.268272	-0.646433	-0.314292	-0.072635	1.17766	2.02864	0.018341	-0.00793094	-0.356466	-0.274339	-0.0552035	2.01461	2.1603	0.0669041	-0.0375241
1.55	-0.101158	0.11259	0.052129	0.935614	0.941479	-0.339373	0.853895	-0.0509048	0.186961	-2.19774	0.0365472	-0.0319619	-0.00910766	0.190619	0.341461	0.198434	-0.727377	0.423778	-0.0238156	-0.0487118	-0.160619	-0.0779372	-0.264318	-0.678853	-0.323774	-0.0848336	1.19339	2.02593	0.018341	-0.00793094	-0.342466	-0.269798	-0.0454421	2.03918	2.16719	0.0669041	-0.0375241
1.55833	-0.102245	0.091075	0.0359337	0.937951	0.947231	-0.339027	0.887165	-0.0163093	0.1858	-2.14045	0.0524983	-0.0319619	-0.00910766	0.125404	0.310426	0.203224	-0.667829	0.38554	-0.0238156	-0.0487118	-0.148887	-0.0519783	-0.261545	-0.711884	-0.33355	-0.0957157	1.2128	2.02047	0.018341	-0.00793094	-0.333282	-0.26541	-0.0362657	2.06423	2.17371	0.0669041	-0.0375241
